<svg id="svg" version="1.1" xmlns="http://www.w3.org/2000/svg" xmlns:xlink="http://www.w3.org/1999/xlink" width="400" height="249.4" viewBox="0, 0, 400,249.4"><g id="svgg"><path id="path0" d="M222.100 0.305 C 219.444 0.583,218.100 0.750,218.100 0.802 C 218.100 0.818,217.740 0.857,217.300 0.888 C 215.473 1.016,213.800 1.256,213.800 1.389 C 213.800 1.467,213.530 1.491,213.200 1.443 C 212.868 1.394,212.600 1.446,212.600 1.559 C 212.600 1.671,212.441 1.721,212.246 1.670 C 212.051 1.619,211.489 1.676,210.996 1.796 C 210.503 1.916,209.875 2.042,209.600 2.076 C 208.163 2.254,207.184 2.464,207.091 2.614 C 207.034 2.707,206.855 2.732,206.694 2.670 C 206.532 2.608,206.400 2.644,206.400 2.750 C 206.400 2.856,206.197 2.935,205.950 2.925 C 205.309 2.900,203.800 3.210,203.799 3.368 C 203.799 3.440,203.478 3.517,203.086 3.537 C 202.694 3.557,202.244 3.680,202.086 3.811 C 201.929 3.942,201.800 4.000,201.800 3.941 C 201.800 3.881,201.474 3.922,201.075 4.032 C 200.676 4.142,200.169 4.267,199.947 4.310 C 199.726 4.353,199.085 4.521,198.522 4.685 C 197.960 4.848,197.434 4.990,197.354 5.000 C 197.273 5.009,196.871 5.158,196.459 5.330 C 196.047 5.502,195.486 5.683,195.212 5.733 C 194.937 5.783,194.597 5.919,194.456 6.036 C 194.315 6.153,194.200 6.182,194.200 6.100 C 194.200 6.018,194.065 6.063,193.900 6.200 C 193.735 6.337,193.600 6.382,193.600 6.300 C 193.600 6.218,193.451 6.275,193.269 6.426 C 193.087 6.576,192.907 6.678,192.869 6.650 C 192.831 6.622,192.778 6.607,192.750 6.615 C 192.722 6.624,192.545 6.660,192.355 6.697 C 191.880 6.788,190.123 7.454,190.000 7.590 C 189.945 7.650,189.810 7.700,189.700 7.700 C 189.162 7.700,186.231 8.888,186.339 9.063 C 186.406 9.172,186.362 9.200,186.239 9.124 C 186.117 9.048,185.855 9.069,185.658 9.169 C 185.019 9.494,183.705 10.067,183.500 10.110 C 183.216 10.170,179.120 12.066,179.000 12.194 C 178.945 12.252,178.765 12.329,178.600 12.365 C 178.435 12.401,178.270 12.514,178.233 12.616 C 178.196 12.719,178.084 12.752,177.983 12.689 C 177.882 12.627,177.800 12.672,177.800 12.788 C 177.800 12.905,177.701 13.000,177.580 13.000 C 177.275 13.000,175.927 13.641,175.778 13.857 C 175.710 13.954,175.575 14.039,175.478 14.044 C 175.137 14.063,174.400 14.465,174.400 14.632 C 174.400 14.724,174.333 14.779,174.250 14.752 C 174.006 14.675,172.797 15.234,172.889 15.382 C 172.935 15.456,172.787 15.531,172.560 15.548 C 172.334 15.565,171.951 15.764,171.711 15.990 C 171.471 16.215,171.206 16.400,171.122 16.400 C 170.851 16.400,167.400 18.478,167.400 18.641 C 167.400 18.729,167.286 18.800,167.147 18.800 C 166.834 18.800,162.985 21.303,162.765 21.649 C 162.678 21.787,162.605 21.816,162.603 21.712 C 162.601 21.609,162.423 21.715,162.207 21.947 C 161.990 22.179,161.630 22.427,161.407 22.498 C 161.183 22.569,161.000 22.707,161.000 22.804 C 161.000 22.902,160.677 23.135,160.282 23.322 C 159.887 23.510,159.517 23.784,159.460 23.932 C 159.404 24.079,159.227 24.200,159.067 24.200 C 158.907 24.200,158.832 24.290,158.900 24.400 C 158.968 24.510,158.883 24.600,158.712 24.600 C 158.540 24.600,158.220 24.780,158.000 25.000 C 157.780 25.220,157.600 25.347,157.600 25.281 C 157.600 25.216,157.129 25.554,156.553 26.031 C 155.977 26.509,155.332 27.035,155.120 27.200 C 154.907 27.365,154.478 27.751,154.167 28.057 C 153.855 28.363,153.600 28.552,153.600 28.476 C 153.600 28.400,153.420 28.501,153.200 28.700 C 152.461 29.369,152.781 29.411,158.500 29.394 C 161.675 29.384,164.200 29.298,164.200 29.199 C 164.200 29.102,164.412 28.904,164.672 28.761 C 165.722 28.181,166.800 27.383,166.800 27.186 C 166.800 27.071,166.879 27.025,166.976 27.085 C 167.154 27.195,168.074 26.570,168.565 26.005 C 168.769 25.770,168.795 25.766,168.679 25.989 C 168.594 26.152,168.829 26.067,169.214 25.797 C 169.591 25.531,169.930 25.243,169.967 25.156 C 170.004 25.069,170.116 25.048,170.217 25.111 C 170.318 25.173,170.400 25.128,170.400 25.012 C 170.400 24.895,170.518 24.800,170.662 24.800 C 170.807 24.800,171.104 24.643,171.323 24.450 C 171.865 23.974,172.430 23.612,172.850 23.471 C 173.043 23.406,173.200 23.259,173.200 23.143 C 173.200 23.028,173.260 22.994,173.334 23.067 C 173.408 23.141,173.672 23.068,173.921 22.904 C 174.429 22.572,175.368 22.033,177.000 21.138 C 177.605 20.806,178.155 20.451,178.222 20.350 C 178.290 20.249,178.406 20.183,178.481 20.204 C 178.722 20.271,179.800 19.757,179.800 19.576 C 179.800 19.479,179.934 19.400,180.097 19.400 C 180.466 19.400,183.846 17.774,184.047 17.500 C 184.128 17.390,184.195 17.369,184.197 17.454 C 184.199 17.539,184.583 17.408,185.050 17.163 C 185.518 16.918,185.945 16.706,186.000 16.692 C 186.055 16.677,186.280 16.591,186.500 16.499 C 188.844 15.524,192.658 14.047,192.800 14.059 C 192.855 14.064,193.125 13.944,193.400 13.793 C 193.675 13.643,193.990 13.496,194.100 13.468 C 195.641 13.075,196.150 12.900,196.416 12.671 C 196.590 12.521,196.789 12.456,196.858 12.525 C 196.927 12.594,197.370 12.495,197.842 12.305 C 198.314 12.116,198.880 11.926,199.100 11.884 C 200.232 11.666,200.600 11.556,200.600 11.434 C 200.600 11.360,200.826 11.287,201.101 11.271 C 201.376 11.255,201.759 11.174,201.951 11.091 C 202.143 11.008,202.480 10.901,202.700 10.854 C 203.447 10.694,203.700 10.631,203.750 10.590 C 203.778 10.568,203.890 10.528,204.000 10.500 C 204.110 10.473,204.222 10.431,204.250 10.409 C 204.278 10.386,204.570 10.332,204.900 10.288 C 205.230 10.244,205.613 10.191,205.750 10.171 C 205.888 10.150,206.000 10.053,206.000 9.955 C 206.000 9.857,206.088 9.831,206.195 9.897 C 206.303 9.964,206.775 9.908,207.245 9.775 C 207.715 9.641,208.267 9.554,208.472 9.582 C 208.693 9.612,208.790 9.546,208.711 9.419 C 208.630 9.286,208.699 9.251,208.893 9.325 C 209.066 9.391,209.453 9.345,209.754 9.222 C 210.054 9.099,210.570 8.983,210.900 8.964 C 211.230 8.944,211.583 8.885,211.685 8.831 C 211.786 8.777,212.101 8.721,212.385 8.705 C 213.157 8.663,219.254 7.772,219.600 7.651 C 219.765 7.594,220.328 7.527,220.850 7.504 C 221.373 7.480,221.822 7.437,221.850 7.409 C 221.878 7.380,222.485 7.327,223.200 7.291 C 223.915 7.255,225.175 7.179,226.000 7.122 C 229.306 6.895,240.298 7.007,242.500 7.290 C 243.484 7.416,246.451 7.653,247.400 7.680 C 247.785 7.691,248.145 7.751,248.200 7.813 C 248.297 7.922,251.490 8.410,252.700 8.501 C 253.030 8.526,253.435 8.597,253.600 8.660 C 254.180 8.880,256.060 9.207,256.161 9.106 C 256.217 9.050,256.375 9.096,256.512 9.210 C 256.648 9.323,257.173 9.435,257.679 9.458 C 258.184 9.481,258.598 9.562,258.599 9.638 C 258.599 9.713,258.757 9.773,258.950 9.769 C 259.317 9.764,263.447 10.836,266.470 11.722 C 267.443 12.008,268.343 12.263,268.470 12.290 C 268.596 12.317,268.835 12.397,269.000 12.467 C 269.165 12.538,269.480 12.628,269.700 12.668 C 270.134 12.746,270.441 12.858,271.772 13.425 C 272.251 13.630,272.724 13.747,272.822 13.687 C 272.920 13.626,273.000 13.672,273.000 13.788 C 273.000 13.905,273.068 13.980,273.150 13.955 C 273.233 13.930,274.198 14.260,275.296 14.688 C 276.394 15.116,277.406 15.467,277.546 15.467 C 277.686 15.467,277.800 15.529,277.800 15.606 C 277.800 15.683,278.228 15.903,278.750 16.096 C 279.272 16.289,280.195 16.671,280.800 16.945 C 281.405 17.220,282.215 17.583,282.600 17.751 C 282.985 17.920,283.435 18.135,283.600 18.227 C 284.550 18.762,286.936 19.866,287.141 19.866 C 287.274 19.867,287.344 19.929,287.297 20.005 C 287.249 20.082,287.588 20.314,288.049 20.522 C 288.874 20.894,288.969 20.925,289.433 20.975 C 289.562 20.989,289.607 21.060,289.534 21.133 C 289.461 21.206,289.844 21.498,290.386 21.783 C 290.928 22.067,292.291 22.840,293.414 23.500 C 294.538 24.160,295.541 24.675,295.644 24.645 C 295.746 24.615,295.779 24.673,295.716 24.774 C 295.618 24.932,296.110 25.269,296.257 25.145 C 296.286 25.120,296.523 25.299,296.785 25.543 C 297.047 25.787,297.337 25.939,297.430 25.881 C 297.524 25.824,297.600 25.869,297.600 25.983 C 297.600 26.166,298.549 26.766,298.948 26.834 C 299.032 26.849,299.190 26.971,299.300 27.106 C 299.620 27.501,302.558 29.600,302.789 29.600 C 302.905 29.600,303.000 29.674,303.000 29.765 C 303.000 29.856,303.501 30.283,304.114 30.715 C 304.727 31.147,305.335 31.590,305.464 31.701 C 305.594 31.811,306.195 32.306,306.800 32.801 C 307.405 33.295,307.930 33.768,307.967 33.851 C 308.004 33.934,308.116 33.952,308.217 33.889 C 308.318 33.827,308.400 33.872,308.400 33.988 C 308.400 34.105,308.493 34.200,308.606 34.200 C 308.719 34.200,309.502 34.875,310.346 35.700 C 311.190 36.525,311.997 37.200,312.140 37.200 C 312.283 37.200,312.377 37.267,312.350 37.350 C 312.322 37.432,312.383 37.545,312.485 37.600 C 312.587 37.655,313.522 38.555,314.563 39.600 C 315.604 40.645,316.383 41.365,316.294 41.200 C 316.189 41.006,316.285 41.035,316.566 41.281 C 317.044 41.700,317.141 41.909,316.750 41.673 C 316.578 41.570,316.585 41.628,316.773 41.859 C 316.923 42.044,317.148 42.137,317.273 42.066 C 317.398 41.994,317.431 42.012,317.347 42.104 C 317.140 42.332,318.204 43.418,318.481 43.261 C 318.601 43.192,318.633 43.209,318.552 43.299 C 318.385 43.483,320.208 45.526,320.465 45.443 C 320.556 45.414,320.580 45.470,320.520 45.567 C 320.460 45.665,320.791 46.107,321.255 46.550 C 321.720 46.993,322.630 48.040,323.278 48.878 C 323.925 49.715,324.533 50.400,324.628 50.400 C 324.722 50.400,324.800 50.535,324.800 50.700 C 324.800 50.865,324.868 51.000,324.950 51.001 C 325.033 51.001,325.276 51.264,325.492 51.586 C 325.708 51.908,325.969 52.119,326.073 52.055 C 326.177 51.991,326.209 52.024,326.144 52.129 C 326.034 52.307,328.396 55.551,328.833 55.821 C 328.944 55.889,329.004 55.986,328.967 56.037 C 328.870 56.171,329.870 57.597,330.062 57.599 C 330.151 57.599,330.168 57.690,330.100 57.800 C 330.032 57.910,330.122 58.000,330.300 58.000 C 330.478 58.000,330.578 58.074,330.522 58.164 C 330.393 58.373,331.887 60.635,332.066 60.501 C 332.140 60.445,332.162 60.453,332.116 60.517 C 332.070 60.582,332.292 61.054,332.610 61.567 C 332.927 62.080,333.372 62.838,333.598 63.250 C 333.823 63.663,334.102 64.000,334.216 64.000 C 334.330 64.000,334.370 64.087,334.305 64.193 C 334.239 64.299,334.361 64.561,334.576 64.776 C 334.791 64.991,334.914 65.219,334.850 65.283 C 334.786 65.347,334.844 65.400,334.978 65.400 C 335.113 65.400,335.173 65.482,335.111 65.583 C 335.048 65.684,335.066 65.796,335.149 65.833 C 335.232 65.870,335.511 66.305,335.769 66.800 C 337.255 69.651,338.076 71.108,338.229 71.167 C 338.324 71.204,338.356 71.309,338.299 71.401 C 338.243 71.493,338.310 71.688,338.448 71.834 C 338.587 71.980,338.700 72.190,338.700 72.300 C 338.700 72.531,340.196 75.650,340.378 75.800 C 340.445 75.855,340.527 76.027,340.561 76.182 C 340.594 76.337,340.748 76.766,340.902 77.135 C 341.056 77.505,341.191 77.873,341.201 77.954 C 341.211 78.034,341.336 78.280,341.479 78.500 C 341.622 78.720,341.856 79.260,341.999 79.700 C 342.142 80.140,342.462 80.950,342.712 81.500 C 343.278 82.751,345.307 88.475,345.493 89.350 C 345.569 89.708,345.712 90.000,345.810 90.000 C 345.907 90.000,345.936 90.135,345.872 90.300 C 345.809 90.465,345.848 90.600,345.960 90.600 C 346.071 90.600,346.115 90.780,346.058 91.000 C 345.999 91.224,346.052 91.400,346.177 91.400 C 346.300 91.400,346.389 91.468,346.376 91.550 C 346.363 91.633,346.371 91.745,346.393 91.800 C 346.415 91.855,346.462 92.125,346.498 92.400 C 346.567 92.936,347.162 95.304,347.351 95.800 C 347.414 95.965,347.484 96.168,347.508 96.250 C 347.531 96.333,347.572 96.468,347.599 96.550 C 347.625 96.633,347.635 96.773,347.619 96.863 C 347.604 96.952,347.684 97.370,347.797 97.790 C 347.911 98.211,348.186 99.397,348.409 100.427 C 348.632 101.457,348.855 102.480,348.904 102.700 C 349.192 103.990,349.261 104.349,349.307 104.800 C 349.379 105.508,349.568 106.963,349.796 108.575 C 349.904 109.335,350.043 110.440,350.105 111.029 C 350.168 111.618,350.266 112.323,350.324 112.595 C 350.382 112.867,350.466 113.857,350.510 114.795 C 350.554 115.733,350.648 117.175,350.719 118.000 C 350.863 119.663,350.830 130.244,350.674 132.600 C 350.619 133.425,350.544 134.612,350.507 135.238 C 350.469 135.864,350.394 136.449,350.339 136.538 C 350.284 136.627,350.177 137.420,350.101 138.300 C 349.878 140.888,349.857 141.076,349.734 141.600 C 349.669 141.875,349.571 142.460,349.516 142.900 C 349.461 143.340,349.316 144.226,349.194 144.870 C 349.072 145.513,349.023 146.090,349.085 146.151 C 349.146 146.213,349.118 146.361,349.023 146.482 C 348.849 146.700,347.934 150.992,347.921 151.650 C 347.917 151.843,347.854 152.000,347.779 152.000 C 347.705 152.000,347.582 152.334,347.505 152.741 C 347.429 153.149,347.060 154.600,346.686 155.965 C 346.312 157.330,346.055 158.527,346.115 158.624 C 346.175 158.721,346.145 158.800,346.049 158.800 C 345.954 158.800,345.620 159.632,345.308 160.650 C 344.997 161.668,344.425 163.347,344.037 164.383 C 343.650 165.418,343.336 166.408,343.340 166.583 C 343.344 166.757,343.234 167.035,343.097 167.200 C 342.824 167.528,342.497 168.411,342.560 168.650 C 342.582 168.733,342.506 168.800,342.391 168.800 C 342.276 168.800,342.201 168.913,342.223 169.050 C 342.245 169.188,342.009 169.836,341.698 170.491 C 341.388 171.146,341.133 171.798,341.133 171.941 C 341.133 172.083,341.064 172.200,340.980 172.200 C 340.896 172.200,340.765 172.403,340.689 172.650 C 340.613 172.898,340.296 173.649,339.985 174.321 C 339.674 174.992,339.393 175.667,339.360 175.821 C 339.327 175.974,339.250 176.145,339.189 176.200 C 338.841 176.515,338.191 177.824,338.298 177.996 C 338.367 178.108,338.348 178.200,338.255 178.200 C 338.038 178.200,337.324 179.399,337.539 179.403 C 337.627 179.405,337.607 179.472,337.494 179.553 C 337.209 179.756,334.733 184.235,334.733 184.547 C 334.733 184.686,334.671 184.800,334.595 184.800 C 334.433 184.800,333.038 187.017,333.036 187.278 C 333.035 187.375,332.950 187.510,332.847 187.578 C 332.552 187.770,331.613 189.342,331.711 189.478 C 331.760 189.545,331.742 189.557,331.671 189.504 C 331.537 189.404,328.803 193.236,328.797 193.533 C 328.795 193.625,328.567 193.915,328.290 194.177 C 328.014 194.439,327.822 194.689,327.864 194.731 C 327.906 194.773,327.639 195.127,327.270 195.518 C 326.902 195.909,326.600 196.357,326.600 196.514 C 326.600 196.671,326.532 196.800,326.448 196.800 C 326.219 196.800,324.492 199.032,324.555 199.245 C 324.585 199.347,324.528 199.379,324.428 199.317 C 324.327 199.255,324.134 199.338,323.998 199.502 C 323.862 199.666,323.830 199.803,323.926 199.806 C 324.021 199.809,323.941 199.905,323.746 200.018 C 323.551 200.132,323.452 200.323,323.527 200.443 C 323.603 200.566,323.570 200.605,323.453 200.533 C 323.338 200.462,323.093 200.634,322.909 200.915 C 322.724 201.197,322.422 201.592,322.237 201.793 C 321.128 203.000,320.905 203.284,320.950 203.434 C 320.978 203.525,320.888 203.578,320.750 203.550 C 320.613 203.523,320.523 203.613,320.550 203.750 C 320.578 203.888,320.533 203.978,320.450 203.950 C 320.368 203.923,320.255 203.983,320.200 204.084 C 320.145 204.184,319.650 204.711,319.100 205.253 C 318.550 205.795,318.213 206.180,318.350 206.108 C 318.487 206.035,318.600 206.029,318.600 206.093 C 318.600 206.157,318.373 206.296,318.095 206.402 C 317.817 206.508,317.507 206.798,317.407 207.047 C 317.307 207.296,317.220 207.419,317.213 207.319 C 317.206 207.219,316.322 208.003,315.250 209.060 C 312.204 212.063,311.261 212.934,310.905 213.070 C 310.718 213.142,310.637 213.298,310.718 213.429 C 310.800 213.561,310.775 213.608,310.662 213.538 C 310.551 213.470,310.207 213.679,309.897 214.003 C 309.586 214.327,308.989 214.830,308.570 215.121 C 308.150 215.412,307.857 215.731,307.918 215.830 C 307.980 215.929,307.944 215.985,307.840 215.955 C 307.643 215.898,305.099 217.833,304.641 218.387 C 304.499 218.559,304.348 218.655,304.306 218.600 C 304.264 218.545,303.912 218.781,303.524 219.125 C 303.135 219.469,302.678 219.804,302.509 219.869 C 302.339 219.934,302.200 220.086,302.200 220.206 C 302.200 220.325,302.126 220.378,302.036 220.323 C 301.946 220.267,301.635 220.442,301.345 220.711 C 301.055 220.980,300.744 221.200,300.653 221.200 C 300.563 221.200,300.194 221.470,299.832 221.800 C 299.471 222.130,299.091 222.400,298.988 222.400 C 298.884 222.400,298.800 222.495,298.800 222.612 C 298.800 222.728,298.709 222.768,298.599 222.699 C 298.488 222.631,298.343 222.715,298.278 222.886 C 298.212 223.058,298.077 223.148,297.978 223.086 C 297.878 223.025,297.743 223.115,297.678 223.286 C 297.612 223.458,297.491 223.556,297.409 223.506 C 297.328 223.455,297.047 223.613,296.785 223.857 C 296.523 224.101,296.286 224.280,296.257 224.255 C 296.096 224.119,295.623 224.476,295.732 224.652 C 295.809 224.777,295.765 224.802,295.622 224.714 C 295.408 224.581,294.099 225.391,293.780 225.853 C 293.714 225.948,293.525 226.046,293.360 226.071 C 293.195 226.095,292.825 226.269,292.537 226.457 C 292.249 226.646,291.925 226.800,291.817 226.800 C 291.709 226.800,291.548 226.929,291.460 227.086 C 291.372 227.243,291.255 227.365,291.200 227.356 C 290.931 227.316,290.200 227.650,290.200 227.813 C 290.200 227.916,290.132 227.982,290.050 227.960 C 289.835 227.902,288.128 228.811,287.953 229.077 C 287.872 229.200,287.805 229.226,287.803 229.136 C 287.799 228.928,284.600 230.622,284.600 230.832 C 284.600 230.918,284.477 230.940,284.326 230.882 C 284.175 230.824,283.905 230.924,283.726 231.103 C 283.547 231.282,283.400 231.371,283.400 231.301 C 283.400 231.232,283.063 231.356,282.650 231.579 C 281.529 232.183,280.241 232.722,279.788 232.775 C 279.672 232.789,279.641 232.904,279.719 233.031 C 279.800 233.161,279.775 233.208,279.661 233.138 C 279.551 233.070,278.030 233.586,276.280 234.285 C 272.197 235.917,272.326 235.869,272.150 235.832 C 272.068 235.814,272.000 235.897,272.000 236.017 C 272.000 236.136,271.887 236.193,271.750 236.145 C 271.613 236.096,271.050 236.232,270.500 236.447 C 269.950 236.662,269.339 236.870,269.141 236.909 C 268.944 236.948,268.494 237.073,268.141 237.187 C 267.149 237.507,264.217 238.331,263.050 238.618 C 262.473 238.760,262.000 238.954,262.000 239.050 C 262.000 239.145,261.910 239.168,261.800 239.100 C 261.690 239.032,261.492 239.043,261.360 239.125 C 261.129 239.267,260.483 239.382,259.750 239.411 C 259.558 239.419,259.400 239.487,259.399 239.562 C 259.398 239.638,259.022 239.722,258.562 239.748 C 258.102 239.775,257.675 239.865,257.613 239.948 C 257.497 240.104,256.841 240.213,256.050 240.208 C 255.803 240.206,255.600 240.271,255.600 240.352 C 255.600 240.434,255.353 240.509,255.050 240.521 C 254.748 240.533,254.185 240.602,253.800 240.676 C 253.415 240.749,252.920 240.841,252.700 240.879 C 252.480 240.918,252.300 240.969,252.300 240.994 C 252.300 241.042,252.246 241.048,249.751 241.286 C 248.900 241.367,248.156 241.510,248.098 241.603 C 248.041 241.696,247.770 241.732,247.497 241.682 C 247.224 241.633,246.438 241.678,245.750 241.784 C 244.651 241.952,243.698 242.034,239.800 242.297 C 237.894 242.426,227.416 242.434,227.211 242.307 C 227.091 242.233,226.433 242.190,225.747 242.210 C 225.061 242.231,224.275 242.194,224.000 242.128 C 223.725 242.062,222.690 241.959,221.700 241.899 C 219.812 241.784,219.555 241.756,217.308 241.424 C 216.542 241.311,215.875 241.258,215.826 241.307 C 215.777 241.356,215.637 241.313,215.514 241.212 C 215.392 241.110,214.709 240.981,213.996 240.924 C 213.283 240.868,212.700 240.805,212.700 240.785 C 212.700 240.751,212.501 240.709,211.500 240.528 C 211.280 240.488,210.965 240.406,210.800 240.345 C 210.635 240.284,210.365 240.227,210.200 240.219 C 209.735 240.196,209.172 240.083,208.300 239.838 C 207.860 239.715,207.185 239.568,206.800 239.512 C 206.072 239.407,205.372 239.264,205.200 239.185 C 205.145 239.160,205.010 239.124,204.900 239.105 C 204.694 239.069,204.109 238.903,201.244 238.067 C 200.333 237.801,199.501 237.638,199.394 237.704 C 199.287 237.770,199.200 237.713,199.200 237.578 C 199.200 237.444,199.147 237.387,199.082 237.452 C 199.017 237.517,198.551 237.393,198.047 237.177 C 197.542 236.961,197.013 236.829,196.871 236.883 C 196.729 236.938,196.559 236.895,196.493 236.788 C 196.426 236.681,196.295 236.641,196.200 236.700 C 196.105 236.759,195.970 236.714,195.900 236.600 C 195.830 236.486,195.689 236.445,195.586 236.509 C 195.484 236.572,195.400 236.519,195.400 236.390 C 195.400 236.262,195.265 236.209,195.100 236.272 C 194.935 236.336,194.800 236.309,194.800 236.212 C 194.800 236.049,192.746 235.300,192.300 235.300 C 192.190 235.300,192.055 235.250,192.000 235.189 C 191.945 235.128,190.505 234.510,188.800 233.815 C 187.095 233.121,185.363 232.382,184.950 232.172 C 184.538 231.963,184.200 231.846,184.200 231.912 C 184.200 231.978,183.885 231.838,183.500 231.600 C 183.115 231.362,182.799 231.242,182.797 231.334 C 182.795 231.425,182.728 231.400,182.647 231.278 C 182.462 230.998,181.200 230.342,181.200 230.526 C 181.200 230.601,181.043 230.523,180.850 230.353 C 180.658 230.183,179.735 229.663,178.800 229.198 C 177.865 228.732,176.515 228.008,175.800 227.588 C 175.085 227.168,174.375 226.797,174.223 226.762 C 174.071 226.728,173.719 226.497,173.442 226.248 C 173.164 225.999,172.899 225.835,172.852 225.882 C 172.805 225.929,172.591 225.817,172.377 225.634 C 172.162 225.450,171.961 225.345,171.929 225.400 C 171.897 225.455,171.728 225.357,171.553 225.181 C 171.377 225.006,170.529 224.427,169.667 223.895 C 168.805 223.363,167.887 222.766,167.626 222.567 C 167.366 222.368,167.060 222.263,166.946 222.334 C 166.832 222.404,166.797 222.367,166.868 222.252 C 166.975 222.078,166.720 221.870,166.308 221.795 C 166.259 221.786,165.936 221.514,165.589 221.189 C 165.242 220.865,164.865 220.600,164.751 220.600 C 164.637 220.600,164.415 220.442,164.257 220.250 C 164.091 220.048,164.035 220.026,164.124 220.200 C 164.251 220.450,164.225 220.458,163.964 220.247 C 163.725 220.053,162.344 220.006,158.088 220.047 L 152.525 220.100 153.888 221.200 C 154.637 221.805,155.335 222.275,155.440 222.245 C 155.544 222.215,155.576 222.278,155.509 222.385 C 155.377 222.600,156.181 223.120,156.500 223.026 C 156.610 222.993,156.634 223.033,156.553 223.114 C 156.472 223.194,156.967 223.674,157.653 224.179 C 158.339 224.684,159.071 225.252,159.280 225.442 C 159.489 225.631,159.737 225.739,159.830 225.681 C 159.924 225.624,160.000 225.665,160.000 225.773 C 160.000 226.061,166.947 230.741,167.239 230.650 C 167.328 230.622,167.400 230.695,167.400 230.812 C 167.400 230.928,167.481 230.974,167.579 230.913 C 167.678 230.852,167.812 230.942,167.878 231.114 C 167.943 231.285,168.088 231.369,168.199 231.301 C 168.309 231.232,168.400 231.259,168.400 231.360 C 168.400 231.462,168.827 231.759,169.350 232.022 C 169.873 232.285,170.345 232.548,170.400 232.606 C 170.500 232.712,172.449 233.863,174.253 234.882 C 174.777 235.178,175.308 235.357,175.434 235.279 C 175.584 235.186,175.606 235.228,175.498 235.403 C 175.379 235.595,175.426 235.633,175.667 235.540 C 175.850 235.470,176.000 235.498,176.000 235.602 C 176.000 235.849,177.512 236.621,177.675 236.458 C 177.744 236.389,177.800 236.444,177.800 236.578 C 177.800 236.713,177.890 236.768,178.000 236.700 C 178.110 236.632,178.200 236.650,178.200 236.739 C 178.200 236.916,179.218 237.418,179.429 237.345 C 179.500 237.320,179.757 237.480,180.000 237.700 C 180.243 237.920,180.477 238.078,180.520 238.052 C 180.563 238.025,181.186 238.273,181.904 238.602 C 182.622 238.931,183.343 239.200,183.505 239.200 C 183.667 239.200,183.800 239.300,183.800 239.421 C 183.800 239.543,183.929 239.593,184.087 239.533 C 184.245 239.472,184.402 239.499,184.437 239.592 C 184.528 239.837,187.018 240.813,187.225 240.684 C 187.321 240.625,187.400 240.659,187.400 240.760 C 187.400 240.985,189.574 241.840,189.796 241.703 C 189.883 241.649,190.061 241.733,190.191 241.889 C 190.321 242.046,190.714 242.235,191.064 242.310 C 191.414 242.385,191.815 242.539,191.955 242.652 C 192.095 242.765,192.267 242.800,192.336 242.730 C 192.406 242.661,192.569 242.691,192.697 242.798 C 192.826 242.905,193.149 243.032,193.416 243.081 C 193.682 243.130,193.923 243.188,193.950 243.210 C 193.978 243.232,194.067 243.269,194.150 243.292 C 194.233 243.316,194.450 243.401,194.634 243.483 C 194.818 243.564,195.088 243.649,195.234 243.671 C 195.380 243.693,195.590 243.767,195.700 243.835 C 195.976 244.005,200.169 245.206,200.352 245.167 C 200.433 245.150,200.733 245.232,201.018 245.351 C 201.303 245.469,201.798 245.615,202.118 245.675 C 202.438 245.735,203.465 245.971,204.400 246.198 C 207.228 246.886,208.669 247.204,209.300 247.277 C 209.630 247.316,210.035 247.398,210.200 247.461 C 210.476 247.565,212.316 247.872,214.000 248.094 C 214.385 248.145,215.641 248.325,216.792 248.494 C 217.942 248.663,219.562 248.852,220.392 248.914 C 221.221 248.976,222.395 249.087,223.000 249.160 C 224.567 249.350,242.061 249.332,243.500 249.139 C 244.160 249.051,245.060 248.949,245.500 248.914 C 248.508 248.674,249.800 248.525,249.800 248.420 C 249.800 248.354,250.048 248.295,250.350 248.289 C 251.199 248.272,253.440 247.999,253.614 247.891 C 253.699 247.839,254.204 247.748,254.735 247.691 C 255.266 247.633,255.925 247.501,256.200 247.397 C 256.475 247.293,257.015 247.171,257.400 247.126 C 258.949 246.944,260.984 246.536,260.913 246.422 C 260.872 246.355,261.077 246.288,261.369 246.273 C 261.857 246.248,262.700 246.074,262.700 245.999 C 262.700 245.981,262.880 245.944,263.100 245.915 C 263.963 245.805,264.912 245.544,265.150 245.352 C 265.288 245.242,265.400 245.201,265.400 245.261 C 265.400 245.322,266.007 245.193,266.750 244.974 C 267.493 244.756,268.325 244.532,268.600 244.477 C 268.875 244.422,269.130 244.291,269.167 244.187 C 269.204 244.083,269.311 244.045,269.404 244.103 C 269.650 244.255,274.600 242.607,274.600 242.373 C 274.600 242.265,274.689 242.231,274.798 242.299 C 274.906 242.366,275.424 242.222,275.948 241.979 C 276.471 241.737,277.012 241.556,277.150 241.578 C 277.288 241.600,277.400 241.518,277.400 241.397 C 277.400 241.276,277.483 241.228,277.585 241.291 C 277.755 241.396,278.766 241.048,279.000 240.804 C 279.055 240.747,279.235 240.672,279.400 240.638 C 279.813 240.554,282.254 239.588,282.500 239.412 C 282.610 239.333,283.127 239.111,283.650 238.918 C 284.173 238.725,284.600 238.487,284.600 238.390 C 284.600 238.292,284.734 238.264,284.898 238.327 C 285.069 238.393,285.250 238.303,285.321 238.117 C 285.390 237.939,285.548 237.812,285.673 237.836 C 285.998 237.897,286.800 237.601,286.800 237.420 C 286.800 237.336,286.913 237.267,287.051 237.267 C 287.189 237.267,287.674 237.032,288.129 236.745 C 288.584 236.458,289.011 236.278,289.078 236.345 C 289.145 236.412,289.200 236.347,289.200 236.200 C 289.200 236.053,289.260 235.994,289.334 236.067 C 289.407 236.141,289.632 236.052,289.834 235.869 C 290.035 235.687,290.200 235.599,290.200 235.674 C 290.200 235.889,293.671 234.004,293.959 233.633 C 294.101 233.450,294.236 233.329,294.259 233.364 C 294.318 233.456,295.472 233.002,295.596 232.837 C 295.653 232.762,296.182 232.442,296.771 232.127 C 298.103 231.414,300.250 230.005,300.447 229.716 C 300.535 229.586,300.598 229.580,300.603 229.700 C 300.608 229.810,300.749 229.720,300.915 229.500 C 301.081 229.280,301.281 229.113,301.359 229.129 C 301.577 229.174,303.200 228.182,303.200 228.004 C 303.200 227.917,303.493 227.706,303.850 227.536 C 304.207 227.366,304.723 227.018,304.995 226.763 C 305.268 226.508,305.523 226.331,305.562 226.368 C 305.601 226.406,305.895 226.204,306.215 225.918 C 306.535 225.633,306.856 225.400,306.929 225.400 C 307.247 225.400,312.601 221.143,314.147 219.661 C 314.628 219.200,315.085 218.808,315.161 218.791 C 315.237 218.774,315.277 218.679,315.250 218.580 C 315.222 218.481,315.267 218.422,315.350 218.450 C 315.616 218.538,317.192 217.150,317.063 216.940 C 316.994 216.829,317.037 216.799,317.157 216.873 C 317.277 216.948,317.448 216.894,317.538 216.754 C 317.627 216.614,318.169 216.072,318.741 215.550 C 319.314 215.028,319.738 214.600,319.684 214.600 C 319.629 214.600,319.700 214.474,319.842 214.319 C 319.984 214.165,320.145 214.051,320.200 214.066 C 320.405 214.123,322.200 212.314,322.200 212.050 C 322.200 211.900,322.275 211.823,322.366 211.879 C 322.585 212.014,325.320 208.996,325.233 208.716 C 325.197 208.597,325.230 208.563,325.308 208.641 C 325.503 208.837,327.012 207.181,326.861 206.937 C 326.793 206.828,326.827 206.793,326.936 206.861 C 327.129 206.980,329.362 204.445,329.321 204.154 C 329.309 204.073,329.504 203.865,329.753 203.690 C 330.003 203.516,330.153 203.287,330.088 203.181 C 330.023 203.076,330.044 203.015,330.135 203.045 C 330.226 203.075,330.323 203.033,330.352 202.952 C 330.380 202.870,330.705 202.493,331.073 202.114 C 331.441 201.735,331.895 201.104,332.081 200.712 C 332.267 200.321,332.465 200.000,332.521 200.000 C 332.578 200.000,332.565 200.113,332.494 200.250 C 332.423 200.388,332.551 200.275,332.778 200.000 C 333.005 199.725,333.193 199.429,333.196 199.341 C 333.198 199.254,333.427 198.939,333.705 198.641 C 333.982 198.344,334.611 197.515,335.101 196.800 C 335.591 196.085,336.392 194.917,336.880 194.204 C 337.368 193.492,337.724 192.839,337.672 192.754 C 337.619 192.669,337.671 192.600,337.786 192.600 C 337.997 192.600,338.950 191.222,339.047 190.775 C 339.076 190.642,339.261 190.365,339.457 190.159 C 339.654 189.954,339.752 189.676,339.675 189.543 C 339.599 189.409,339.610 189.367,339.700 189.449 C 339.932 189.659,340.453 188.851,340.280 188.550 C 340.201 188.412,340.210 188.367,340.300 188.449 C 340.390 188.531,340.562 188.425,340.682 188.213 C 340.802 188.002,341.228 187.260,341.629 186.565 C 343.377 183.531,345.457 179.454,345.463 179.050 C 345.465 178.913,345.547 178.800,345.645 178.800 C 345.743 178.800,345.768 178.710,345.700 178.600 C 345.632 178.490,345.655 178.400,345.751 178.400 C 345.940 178.400,346.994 176.306,347.069 175.780 C 347.094 175.604,347.273 175.219,347.466 174.924 C 347.659 174.630,347.763 174.301,347.697 174.194 C 347.630 174.087,347.655 174.000,347.752 174.000 C 347.894 174.000,349.281 170.954,349.301 170.600 C 349.304 170.545,349.378 170.388,349.465 170.250 C 349.552 170.113,349.568 169.910,349.500 169.800 C 349.432 169.690,349.472 169.600,349.588 169.600 C 349.705 169.600,349.800 169.438,349.800 169.240 C 349.800 169.042,349.882 168.794,349.981 168.690 C 350.081 168.585,350.257 168.185,350.371 167.800 C 350.486 167.415,350.855 166.350,351.191 165.433 C 351.527 164.515,351.756 163.691,351.700 163.600 C 351.644 163.509,351.673 163.404,351.765 163.367 C 351.974 163.283,353.417 158.754,353.465 158.031 C 353.484 157.739,353.570 157.448,353.655 157.385 C 353.741 157.322,353.831 156.984,353.855 156.635 C 353.880 156.286,353.959 156.001,354.031 156.000 C 354.141 156.000,354.470 154.364,354.493 153.700 C 354.497 153.590,354.556 153.455,354.625 153.400 C 354.746 153.303,355.885 148.004,356.086 146.600 C 356.141 146.215,356.280 145.413,356.394 144.818 C 356.508 144.222,356.560 143.693,356.508 143.641 C 356.456 143.590,356.490 143.402,356.583 143.224 C 356.728 142.944,356.990 141.002,357.097 139.400 C 357.116 139.125,357.188 138.585,357.258 138.200 C 357.910 134.605,358.181 115.400,357.581 115.400 C 357.498 115.400,357.469 115.086,357.517 114.702 C 357.651 113.623,356.471 103.900,356.206 103.900 C 356.192 103.900,356.144 103.478,356.098 102.962 C 356.052 102.446,355.869 101.411,355.691 100.662 C 355.514 99.913,355.327 99.075,355.277 98.800 C 355.226 98.525,355.145 98.165,355.097 98.000 C 355.049 97.835,354.954 97.340,354.886 96.900 C 354.819 96.460,354.681 96.070,354.580 96.033 C 354.480 95.996,354.440 95.896,354.493 95.812 C 354.545 95.727,354.364 94.767,354.091 93.679 C 353.817 92.590,353.545 91.484,353.487 91.219 C 353.429 90.955,353.295 90.578,353.190 90.382 C 353.086 90.186,353.000 89.891,353.000 89.726 C 353.000 89.561,352.898 89.173,352.773 88.863 C 352.648 88.553,352.518 88.083,352.483 87.818 C 352.449 87.553,352.348 87.283,352.260 87.218 C 352.172 87.153,352.067 86.965,352.027 86.800 C 351.986 86.635,351.836 86.007,351.693 85.405 C 351.549 84.803,351.340 84.280,351.227 84.242 C 351.115 84.205,351.061 84.067,351.109 83.937 C 351.156 83.807,350.877 82.935,350.488 82.000 C 350.098 81.065,349.754 80.210,349.721 80.100 C 349.689 79.990,349.591 79.630,349.504 79.300 C 349.416 78.970,349.282 78.610,349.206 78.500 C 349.130 78.390,348.949 77.985,348.806 77.600 C 348.104 75.722,346.936 73.200,346.766 73.200 C 346.662 73.200,346.629 73.115,346.693 73.012 C 346.836 72.781,342.983 64.987,342.786 65.109 C 342.709 65.157,342.658 65.084,342.673 64.948 C 342.699 64.708,339.863 59.601,339.591 59.400 C 339.517 59.345,339.299 58.993,339.106 58.618 C 338.476 57.388,335.573 53.200,335.351 53.200 C 335.231 53.200,335.190 53.143,335.260 53.073 C 335.407 52.927,334.214 51.200,333.966 51.200 C 333.875 51.200,333.800 51.101,333.800 50.980 C 333.800 50.628,330.725 46.613,330.450 46.606 C 330.313 46.603,330.223 46.531,330.250 46.446 C 330.278 46.361,330.098 46.034,329.850 45.719 C 329.603 45.404,329.396 45.226,329.392 45.323 C 329.388 45.420,329.255 45.201,329.096 44.836 C 328.937 44.471,328.716 44.228,328.604 44.298 C 328.492 44.367,328.400 44.320,328.400 44.194 C 328.400 43.976,327.965 43.436,326.765 42.166 C 326.471 41.855,326.283 41.600,326.346 41.600 C 326.410 41.600,325.975 41.127,325.379 40.550 C 324.784 39.972,324.088 39.206,323.833 38.848 C 323.564 38.469,323.271 38.252,323.135 38.330 C 323.006 38.404,322.965 38.392,323.045 38.304 C 323.212 38.119,320.879 35.732,320.337 35.535 C 320.138 35.462,320.027 35.318,320.091 35.214 C 320.155 35.111,319.793 34.683,319.286 34.263 C 318.779 33.843,317.855 33.023,317.232 32.441 C 316.111 31.391,314.785 30.216,314.193 29.744 C 314.024 29.610,313.407 29.073,312.822 28.551 C 312.237 28.029,311.664 27.660,311.548 27.732 C 311.429 27.806,311.397 27.766,311.475 27.641 C 311.611 27.421,310.850 26.872,310.535 26.962 C 310.444 26.989,310.428 26.917,310.498 26.804 C 310.568 26.690,310.462 26.537,310.263 26.464 C 310.063 26.390,309.827 26.209,309.738 26.061 C 309.648 25.913,309.499 25.839,309.405 25.897 C 309.312 25.954,308.980 25.727,308.668 25.391 C 308.355 25.054,307.602 24.444,306.993 24.033 C 306.384 23.623,305.494 22.975,305.016 22.594 C 304.538 22.212,304.069 21.922,303.973 21.950 C 303.878 21.977,303.800 21.895,303.800 21.767 C 303.800 21.638,303.750 21.584,303.688 21.645 C 303.626 21.707,303.355 21.537,303.086 21.268 C 302.817 20.999,302.517 20.828,302.419 20.888 C 302.322 20.948,302.188 20.858,302.122 20.686 C 302.057 20.515,301.922 20.425,301.822 20.486 C 301.723 20.548,301.585 20.450,301.516 20.270 C 301.447 20.090,301.342 19.991,301.283 20.050 C 301.224 20.110,300.940 19.940,300.653 19.674 C 300.366 19.408,299.922 19.138,299.666 19.073 C 299.410 19.009,299.200 18.871,299.200 18.767 C 299.200 18.662,299.110 18.632,299.000 18.700 C 298.890 18.768,298.800 18.739,298.800 18.635 C 298.800 18.428,297.982 17.842,297.572 17.755 C 297.431 17.725,297.134 17.539,296.912 17.342 C 296.690 17.146,296.304 16.933,296.054 16.871 C 295.804 16.808,295.600 16.691,295.600 16.610 C 295.600 16.461,294.842 16.062,294.522 16.044 C 294.425 16.039,294.290 15.955,294.222 15.858 C 293.969 15.494,292.560 14.801,292.335 14.930 C 292.206 15.004,292.168 14.989,292.252 14.897 C 292.419 14.712,288.790 12.785,288.550 12.932 C 288.468 12.982,288.400 12.923,288.400 12.800 C 288.400 12.677,288.318 12.627,288.217 12.689 C 288.116 12.752,288.004 12.729,287.967 12.639 C 287.852 12.358,285.754 11.405,285.541 11.536 C 285.429 11.605,285.396 11.568,285.467 11.454 C 285.538 11.339,285.394 11.180,285.148 11.100 C 284.901 11.019,284.655 10.934,284.600 10.909 C 284.545 10.884,284.140 10.709,283.700 10.519 C 283.260 10.330,282.630 10.052,282.300 9.902 C 280.567 9.113,279.824 8.843,279.707 8.959 C 279.636 9.030,279.511 8.979,279.428 8.845 C 279.211 8.494,275.032 6.959,274.743 7.125 C 274.609 7.201,274.568 7.189,274.651 7.098 C 274.734 7.007,273.609 6.543,272.151 6.067 C 270.693 5.591,269.224 5.112,268.886 5.001 C 268.548 4.891,268.030 4.800,267.736 4.800 C 267.441 4.800,267.200 4.724,267.200 4.632 C 267.200 4.497,265.700 4.046,264.700 3.879 C 264.590 3.861,264.433 3.825,264.350 3.798 C 264.268 3.772,264.020 3.728,263.800 3.700 C 263.580 3.673,263.355 3.627,263.300 3.600 C 263.245 3.573,263.110 3.527,263.000 3.500 C 262.890 3.473,262.778 3.432,262.750 3.410 C 262.662 3.340,261.714 3.155,261.300 3.127 C 261.080 3.112,260.855 3.043,260.800 2.974 C 260.745 2.904,260.312 2.793,259.838 2.728 C 259.363 2.662,258.903 2.564,258.815 2.509 C 258.727 2.455,258.306 2.360,257.878 2.298 C 257.450 2.236,256.911 2.158,256.681 2.124 C 256.450 2.090,256.180 2.012,256.081 1.951 C 255.981 1.890,255.423 1.788,254.841 1.726 C 254.258 1.663,253.713 1.570,253.629 1.518 C 253.545 1.466,253.032 1.377,252.488 1.321 C 251.945 1.264,250.993 1.130,250.373 1.023 C 249.754 0.916,249.079 0.855,248.873 0.888 C 248.668 0.921,248.349 0.870,248.165 0.775 C 247.980 0.680,247.057 0.561,246.113 0.512 C 245.169 0.462,244.285 0.349,244.148 0.261 C 243.695 -0.033,224.972 0.005,222.100 0.305 M147.347 47.519 C 147.300 47.567,146.550 47.609,145.680 47.613 C 143.070 47.625,139.069 48.019,136.400 48.528 C 135.575 48.685,134.765 48.820,134.600 48.827 C 134.435 48.834,133.940 48.937,133.500 49.055 C 133.060 49.173,132.588 49.250,132.450 49.226 C 132.313 49.202,132.200 49.268,132.200 49.373 C 132.200 49.477,132.030 49.518,131.823 49.464 C 131.615 49.410,131.387 49.459,131.316 49.574 C 131.245 49.689,131.064 49.735,130.914 49.678 C 130.763 49.620,130.580 49.670,130.506 49.790 C 130.433 49.909,130.289 49.955,130.186 49.891 C 130.084 49.828,130.000 49.877,130.000 50.000 C 130.000 50.123,129.918 50.173,129.817 50.110 C 129.716 50.048,129.379 50.102,129.067 50.231 C 128.755 50.359,128.388 50.446,128.250 50.423 C 128.113 50.401,128.000 50.474,128.000 50.585 C 128.000 50.696,127.874 50.739,127.720 50.680 C 127.566 50.621,127.383 50.665,127.314 50.778 C 127.244 50.890,127.055 50.932,126.894 50.870 C 126.732 50.808,126.600 50.857,126.600 50.979 C 126.600 51.100,126.533 51.188,126.450 51.173 C 126.040 51.100,125.022 51.473,125.134 51.655 C 125.204 51.769,125.165 51.802,125.048 51.729 C 124.808 51.581,122.494 52.505,121.950 52.966 C 121.758 53.129,121.600 53.204,121.600 53.134 C 121.600 53.064,121.240 53.194,120.800 53.423 C 120.360 53.653,120.000 53.921,120.000 54.020 C 120.000 54.119,119.933 54.179,119.850 54.152 C 119.582 54.068,118.400 54.642,118.400 54.858 C 118.400 54.973,118.344 55.010,118.275 54.941 C 118.153 54.819,116.697 55.732,116.165 56.264 C 116.019 56.409,115.846 56.522,115.779 56.514 C 115.501 56.481,112.836 58.552,111.602 59.759 C 110.998 60.350,110.402 60.894,110.278 60.967 C 109.927 61.173,106.600 64.836,106.600 65.016 C 106.600 65.104,106.330 65.471,106.000 65.832 C 105.670 66.194,105.400 66.604,105.400 66.745 C 105.400 66.885,105.312 67.000,105.205 67.000 C 104.994 67.000,104.291 68.204,104.359 68.450 C 104.381 68.533,104.311 68.600,104.203 68.600 C 103.871 68.600,101.418 72.797,101.745 72.803 C 101.830 72.805,101.790 72.876,101.655 72.962 C 101.352 73.154,99.780 76.341,99.742 76.838 C 99.727 77.037,99.652 77.200,99.575 77.200 C 99.433 77.200,98.228 80.204,98.138 80.784 C 98.111 80.958,98.018 81.213,97.932 81.350 C 97.847 81.488,97.832 81.690,97.900 81.800 C 97.968 81.910,97.919 82.000,97.790 82.000 C 97.662 82.000,97.606 82.128,97.667 82.285 C 97.727 82.442,97.642 82.682,97.479 82.817 C 97.316 82.953,97.228 83.185,97.285 83.332 C 97.341 83.479,97.311 83.600,97.217 83.600 C 97.123 83.600,97.001 83.803,96.945 84.050 C 96.889 84.298,96.472 85.924,96.019 87.665 C 95.566 89.406,95.247 90.913,95.309 91.015 C 95.372 91.117,95.319 91.200,95.190 91.200 C 95.057 91.200,95.011 91.340,95.082 91.525 C 95.151 91.704,95.122 91.953,95.018 92.078 C 94.914 92.204,94.787 92.665,94.737 93.103 C 94.686 93.541,94.551 94.260,94.437 94.700 C 94.323 95.140,94.178 95.905,94.114 96.400 C 94.051 96.895,93.955 97.525,93.900 97.800 C 93.605 99.292,93.345 101.202,93.111 103.600 C 93.073 103.985,92.937 105.069,92.808 106.010 C 92.679 106.950,92.596 107.805,92.624 107.910 C 92.652 108.014,92.611 108.550,92.533 109.100 C 91.972 113.073,91.784 134.928,92.283 138.300 C 92.331 138.630,92.425 139.890,92.492 141.100 C 92.558 142.310,92.661 143.545,92.721 143.844 C 92.780 144.143,92.858 144.728,92.894 145.144 C 93.106 147.593,93.256 148.919,93.338 149.055 C 93.389 149.141,93.475 149.816,93.530 150.555 C 93.584 151.295,93.707 151.928,93.803 151.963 C 93.899 151.998,93.937 152.133,93.886 152.263 C 93.836 152.394,93.930 153.221,94.094 154.100 C 94.259 154.980,94.441 156.015,94.499 156.400 C 94.646 157.370,95.585 161.634,95.732 162.000 C 95.798 162.165,95.887 162.565,95.929 162.890 C 95.971 163.214,96.072 163.529,96.153 163.590 C 96.235 163.650,96.332 163.970,96.370 164.300 C 96.407 164.630,96.520 164.930,96.620 164.967 C 96.720 165.004,96.758 165.106,96.704 165.193 C 96.562 165.424,97.428 168.200,97.643 168.200 C 97.742 168.200,97.769 168.289,97.701 168.398 C 97.634 168.506,97.745 168.979,97.948 169.448 C 98.151 169.916,98.487 170.812,98.696 171.439 C 98.904 172.065,99.163 172.523,99.272 172.456 C 99.386 172.385,99.415 172.473,99.340 172.667 C 99.270 172.850,99.300 173.000,99.406 173.000 C 99.513 173.000,99.585 173.067,99.567 173.150 C 99.496 173.477,99.856 174.400,100.055 174.400 C 100.171 174.400,100.207 174.459,100.135 174.532 C 100.063 174.604,100.104 174.784,100.226 174.932 C 100.349 175.079,100.400 175.200,100.339 175.200 C 100.279 175.200,100.551 175.808,100.944 176.550 C 101.337 177.293,101.796 178.170,101.964 178.500 C 102.131 178.830,102.321 179.145,102.384 179.200 C 102.448 179.255,102.720 179.722,102.989 180.238 C 103.258 180.753,103.536 181.140,103.606 181.096 C 103.676 181.053,103.733 181.128,103.733 181.263 C 103.733 181.589,104.807 183.200,105.024 183.200 C 105.118 183.200,105.322 183.493,105.477 183.850 C 105.632 184.208,106.159 184.927,106.647 185.449 C 107.135 185.971,107.510 186.424,107.479 186.455 C 107.448 186.485,108.250 187.311,109.261 188.288 C 112.219 191.148,112.501 191.400,112.735 191.400 C 112.857 191.400,113.011 191.541,113.077 191.713 C 113.143 191.885,113.288 191.969,113.400 191.900 C 113.512 191.831,113.655 191.909,113.718 192.074 C 113.986 192.773,120.597 196.749,121.038 196.476 C 121.127 196.421,121.200 196.466,121.200 196.575 C 121.200 196.765,121.793 197.043,122.000 196.950 C 122.055 196.926,122.436 197.113,122.846 197.367 C 123.257 197.621,123.684 197.771,123.796 197.702 C 123.908 197.633,124.000 197.664,124.000 197.772 C 124.000 197.922,125.504 198.559,126.200 198.704 C 126.255 198.716,126.885 198.912,127.600 199.140 C 129.448 199.731,133.156 200.625,134.100 200.709 C 134.540 200.748,134.900 200.791,134.900 200.805 C 134.900 200.901,136.889 201.191,138.238 201.292 C 138.754 201.330,139.266 201.417,139.376 201.485 C 139.485 201.553,139.828 201.601,140.138 201.592 C 140.447 201.584,142.095 201.659,143.800 201.759 C 147.455 201.973,155.251 201.832,158.500 201.492 C 158.940 201.446,159.930 201.370,160.700 201.322 C 161.470 201.275,162.685 201.169,163.400 201.085 C 164.115 201.002,164.858 200.929,165.050 200.924 C 165.243 200.919,165.400 200.838,165.400 200.745 C 165.400 200.652,165.495 200.635,165.612 200.707 C 165.823 200.838,169.034 200.475,169.600 200.257 C 169.861 200.156,170.240 200.106,171.600 199.992 C 171.765 199.978,172.035 199.920,172.200 199.862 C 172.365 199.805,172.834 199.731,173.241 199.696 C 173.649 199.662,174.094 199.566,174.230 199.482 C 174.365 199.398,174.761 199.310,175.108 199.287 C 175.456 199.264,176.046 199.173,176.420 199.084 C 176.794 198.996,177.168 198.941,177.250 198.962 C 177.333 198.983,177.400 198.916,177.400 198.813 C 177.400 198.711,177.625 198.667,177.900 198.717 C 178.175 198.767,178.400 198.739,178.401 198.654 C 178.402 198.569,178.748 198.481,179.170 198.457 C 179.592 198.433,180.199 198.306,180.519 198.175 C 180.838 198.043,181.173 197.952,181.263 197.972 C 181.352 197.992,181.802 197.900,182.263 197.768 C 183.281 197.476,183.068 197.530,184.450 197.206 C 185.083 197.058,185.600 196.855,185.600 196.756 C 185.600 196.657,185.677 196.624,185.771 196.682 C 185.927 196.778,188.272 196.189,189.000 195.871 C 189.165 195.799,189.473 195.707,189.684 195.666 C 189.896 195.625,190.174 195.505,190.303 195.398 C 190.431 195.291,190.596 195.263,190.668 195.335 C 190.741 195.407,190.800 195.381,190.800 195.277 C 190.800 195.173,191.014 195.070,191.276 195.048 C 191.538 195.026,191.965 194.927,192.226 194.828 C 192.487 194.729,192.754 194.660,192.819 194.674 C 192.885 194.688,193.087 194.576,193.269 194.426 C 193.451 194.275,193.600 194.210,193.600 194.283 C 193.600 194.355,193.780 194.318,194.001 194.200 C 194.399 193.986,194.401 193.823,194.351 157.143 L 194.300 120.300 172.148 120.249 L 149.996 120.198 150.048 130.849 L 150.100 141.500 160.750 141.552 L 171.400 141.604 171.400 159.180 C 171.400 178.896,171.563 176.932,169.909 177.132 C 169.473 177.185,169.023 177.287,168.909 177.359 C 168.794 177.431,168.475 177.520,168.200 177.557 C 167.925 177.594,166.800 177.805,165.700 178.024 C 164.600 178.244,163.295 178.468,162.800 178.521 C 162.305 178.574,161.765 178.668,161.600 178.730 C 161.435 178.791,160.940 178.880,160.500 178.926 C 160.060 178.973,159.430 179.052,159.100 179.103 C 157.970 179.276,156.897 179.359,154.100 179.490 C 152.560 179.562,151.165 179.670,151.000 179.728 C 150.723 179.827,146.549 179.809,145.400 179.704 C 143.206 179.504,141.960 179.324,141.125 179.085 C 140.589 178.932,140.078 178.852,139.989 178.907 C 139.900 178.962,139.777 178.925,139.716 178.826 C 139.621 178.672,138.545 178.361,137.900 178.301 C 137.790 178.291,137.220 178.039,136.634 177.741 C 136.047 177.444,135.440 177.200,135.284 177.200 C 135.128 177.200,135.000 177.110,135.000 177.000 C 135.000 176.890,134.912 176.800,134.804 176.800 C 134.696 176.800,134.089 176.465,133.454 176.055 C 132.819 175.646,132.233 175.331,132.150 175.355 C 132.067 175.380,132.000 175.295,132.000 175.167 C 132.000 175.038,131.951 174.982,131.891 175.042 C 131.831 175.102,131.418 174.802,130.974 174.375 C 130.526 173.944,130.061 173.657,129.933 173.731 C 129.805 173.804,129.764 173.793,129.842 173.707 C 129.920 173.620,129.420 172.991,128.730 172.308 C 128.041 171.625,126.926 170.309,126.252 169.383 C 125.578 168.458,124.886 167.543,124.714 167.350 C 124.541 167.158,124.468 166.999,124.550 166.997 C 124.633 166.995,124.610 166.928,124.500 166.847 C 124.390 166.766,123.948 166.003,123.517 165.150 C 123.087 164.298,122.660 163.600,122.567 163.600 C 122.475 163.600,122.411 163.533,122.424 163.450 C 122.492 163.020,122.367 162.596,122.093 162.321 C 121.924 162.153,121.796 161.944,121.808 161.857 C 121.851 161.562,121.118 159.600,120.965 159.600 C 120.881 159.600,120.860 159.477,120.918 159.326 C 120.976 159.175,120.887 158.916,120.721 158.750 C 120.555 158.584,120.473 158.394,120.538 158.329 C 120.603 158.263,120.555 158.087,120.430 157.936 C 120.306 157.786,120.250 157.616,120.307 157.559 C 120.364 157.502,120.311 157.195,120.188 156.878 C 120.065 156.560,119.935 156.165,119.898 156.000 C 119.862 155.835,119.588 154.755,119.289 153.600 C 118.990 152.445,118.743 151.388,118.740 151.250 C 118.736 151.113,118.653 151.000,118.555 151.000 C 118.457 151.000,118.430 150.914,118.495 150.809 C 118.560 150.704,118.483 150.051,118.324 149.359 C 118.165 148.666,117.926 147.200,117.792 146.100 C 117.658 145.000,117.471 144.002,117.376 143.882 C 117.281 143.761,117.254 143.613,117.316 143.551 C 117.377 143.489,117.290 142.238,117.122 140.769 C 116.458 134.984,116.104 120.627,116.489 115.100 C 116.543 114.330,116.637 112.845,116.699 111.800 C 116.907 108.272,116.967 107.480,117.080 106.789 C 117.142 106.410,117.235 105.650,117.287 105.100 C 117.426 103.629,118.188 98.581,118.297 98.405 C 118.348 98.322,118.436 97.859,118.491 97.377 C 118.547 96.894,118.811 95.601,119.079 94.503 C 119.346 93.404,119.528 92.445,119.481 92.370 C 119.435 92.295,119.466 92.204,119.549 92.167 C 119.725 92.089,120.810 88.791,120.855 88.200 C 120.872 87.980,120.956 87.800,121.043 87.800 C 121.129 87.800,121.182 87.733,121.160 87.650 C 121.138 87.567,121.365 86.976,121.664 86.337 C 121.962 85.697,122.159 85.095,122.100 85.000 C 122.042 84.905,122.087 84.770,122.201 84.700 C 122.507 84.510,123.402 82.669,123.258 82.524 C 123.189 82.456,123.222 82.400,123.330 82.400 C 123.610 82.400,124.422 80.892,124.246 80.697 C 124.166 80.609,124.199 80.592,124.321 80.662 C 124.535 80.783,125.111 79.869,125.030 79.535 C 125.008 79.444,125.073 79.421,125.174 79.484 C 125.354 79.595,125.695 79.048,125.632 78.750 C 125.614 78.667,125.674 78.622,125.764 78.650 C 125.854 78.677,126.383 78.181,126.940 77.546 C 127.986 76.354,129.046 75.384,130.600 74.198 C 131.095 73.820,131.545 73.454,131.600 73.385 C 131.655 73.316,132.600 72.819,133.700 72.280 C 134.800 71.741,135.730 71.233,135.767 71.150 C 135.803 71.067,136.051 71.000,136.317 71.000 C 136.583 71.000,136.800 70.913,136.800 70.806 C 136.800 70.700,136.935 70.664,137.100 70.728 C 137.265 70.791,137.400 70.753,137.400 70.644 C 137.400 70.534,137.513 70.455,137.650 70.467 C 138.036 70.502,140.200 69.951,140.200 69.818 C 140.200 69.753,140.403 69.690,140.650 69.677 C 140.898 69.665,141.505 69.589,142.000 69.508 C 142.495 69.428,143.080 69.337,143.300 69.306 C 143.520 69.276,143.700 69.236,143.700 69.217 C 143.700 68.969,159.312 68.979,160.000 69.228 C 160.055 69.248,160.595 69.294,161.200 69.331 C 161.805 69.368,162.660 69.440,163.100 69.491 C 163.540 69.542,164.350 69.632,164.900 69.690 C 165.450 69.748,167.159 69.969,168.698 70.180 C 170.237 70.391,171.568 70.519,171.657 70.465 C 171.745 70.410,171.942 70.469,172.095 70.596 C 172.248 70.722,172.828 70.843,173.385 70.863 C 173.941 70.883,174.398 70.978,174.398 71.073 C 174.399 71.169,174.625 71.204,174.900 71.151 C 175.175 71.098,175.400 71.143,175.400 71.249 C 175.400 71.356,175.529 71.393,175.687 71.333 C 175.845 71.272,176.318 71.342,176.737 71.488 C 177.948 71.909,179.412 72.216,179.614 72.091 C 179.716 72.028,179.800 72.072,179.800 72.188 C 179.800 72.305,179.958 72.401,180.150 72.401 C 180.509 72.403,183.489 73.242,185.787 73.989 C 187.270 74.471,187.370 74.420,187.445 73.146 C 187.475 72.627,187.568 72.202,187.650 72.201 C 187.733 72.200,187.785 72.133,187.767 72.050 C 187.749 71.968,187.788 71.675,187.853 71.400 C 188.415 69.032,189.614 62.747,189.521 62.654 C 189.456 62.590,189.483 62.439,189.579 62.318 C 189.827 62.011,190.956 56.341,191.067 54.850 C 191.085 54.602,191.153 54.400,191.217 54.400 C 191.859 54.400,191.096 53.776,190.117 53.502 C 189.447 53.314,188.495 53.018,188.000 52.844 C 187.505 52.670,186.965 52.511,186.800 52.492 C 186.635 52.472,186.263 52.360,185.973 52.242 C 185.683 52.124,185.188 51.991,184.873 51.945 C 184.558 51.900,184.165 51.808,184.000 51.739 C 183.592 51.571,180.538 50.813,179.853 50.710 C 179.549 50.664,178.737 50.487,178.048 50.315 C 177.359 50.144,176.414 49.960,175.948 49.906 C 175.482 49.853,174.965 49.778,174.800 49.740 C 174.072 49.572,172.273 49.228,172.000 49.204 C 170.777 49.099,170.093 49.023,170.050 48.989 C 169.961 48.919,169.721 48.878,168.400 48.709 C 167.685 48.617,166.875 48.510,166.600 48.471 C 165.075 48.258,161.742 47.987,161.538 48.060 C 161.407 48.107,161.161 48.075,160.991 47.988 C 160.565 47.770,147.544 47.323,147.347 47.519 M210.000 124.788 L 210.000 199.807 231.150 199.743 C 242.782 199.707,253.110 199.621,254.100 199.552 C 255.090 199.482,256.385 199.417,256.979 199.407 C 257.572 199.397,258.142 199.336,258.246 199.271 C 258.350 199.207,258.855 199.127,259.368 199.092 C 262.301 198.896,266.301 198.367,267.200 198.057 C 267.365 198.000,267.770 197.925,268.100 197.891 C 269.105 197.785,274.000 196.576,274.000 196.433 C 274.001 196.360,274.248 196.288,274.550 196.273 C 274.853 196.258,275.370 196.132,275.700 195.992 C 276.030 195.853,276.390 195.718,276.500 195.692 C 277.395 195.484,278.800 194.918,278.800 194.765 C 278.800 194.661,278.894 194.634,279.009 194.705 C 279.124 194.776,279.435 194.692,279.702 194.517 C 279.968 194.343,280.324 194.200,280.493 194.200 C 280.662 194.200,280.800 194.095,280.800 193.967 C 280.800 193.838,280.856 193.789,280.924 193.857 C 281.030 193.963,282.025 193.488,284.836 191.991 C 285.155 191.821,285.367 191.634,285.308 191.575 C 285.249 191.515,285.315 191.467,285.456 191.467 C 285.796 191.467,286.800 190.802,286.800 190.577 C 286.800 190.480,286.913 190.400,287.050 190.400 C 287.188 190.400,287.570 190.171,287.900 189.893 C 289.229 188.770,289.926 188.196,290.452 187.792 C 290.755 187.559,290.944 187.271,290.871 187.153 C 290.798 187.035,290.830 186.995,290.942 187.064 C 291.055 187.134,291.316 186.992,291.523 186.749 C 291.895 186.312,291.895 186.311,291.500 186.603 C 291.130 186.878,291.121 186.874,291.373 186.552 C 291.523 186.361,291.715 186.248,291.800 186.300 C 291.886 186.353,292.591 185.655,293.367 184.748 C 295.011 182.828,296.066 181.403,295.851 181.394 C 295.768 181.391,295.858 181.296,296.050 181.184 C 296.243 181.072,296.400 180.850,296.400 180.690 C 296.400 180.531,296.480 180.400,296.577 180.400 C 296.675 180.400,296.908 180.077,297.095 179.682 C 297.282 179.287,297.608 178.792,297.818 178.582 C 298.028 178.372,298.200 178.027,298.200 177.817 C 298.200 177.606,298.276 177.403,298.370 177.367 C 298.636 177.262,299.619 175.392,299.505 175.208 C 299.448 175.116,299.528 174.994,299.682 174.934 C 299.836 174.875,300.027 174.534,300.106 174.175 C 300.184 173.816,300.374 173.398,300.526 173.245 C 300.679 173.093,300.756 172.891,300.699 172.798 C 300.641 172.704,300.686 172.570,300.800 172.500 C 300.914 172.430,300.955 172.289,300.891 172.186 C 300.828 172.084,300.862 172.000,300.968 172.000 C 301.179 172.000,302.600 168.475,302.600 167.952 C 302.600 167.771,302.696 167.564,302.814 167.492 C 302.931 167.419,302.979 167.234,302.920 167.080 C 302.861 166.926,302.885 166.800,302.973 166.800 C 303.061 166.800,303.145 166.688,303.159 166.550 C 303.173 166.413,303.508 165.220,303.905 163.900 C 304.301 162.580,304.701 161.140,304.794 160.700 C 304.888 160.260,305.193 158.831,305.474 157.525 C 305.754 156.218,305.972 155.093,305.959 155.025 C 305.945 154.956,305.997 154.675,306.073 154.400 C 306.149 154.125,306.236 153.492,306.267 152.993 C 306.298 152.493,306.383 151.989,306.456 151.871 C 306.528 151.754,306.631 151.058,306.684 150.326 C 306.737 149.593,306.824 148.923,306.877 148.836 C 307.009 148.624,307.816 139.970,307.822 138.708 C 307.825 138.153,307.869 136.215,307.921 134.400 C 308.085 128.679,307.957 113.895,307.717 110.700 C 307.659 109.930,307.559 108.445,307.493 107.400 C 307.427 106.355,307.327 105.005,307.269 104.400 C 307.093 102.558,307.047 101.972,306.922 100.066 C 306.856 99.057,306.717 98.008,306.614 97.736 C 306.510 97.464,306.466 97.200,306.516 97.150 C 306.566 97.101,306.469 96.124,306.300 94.980 C 306.131 93.836,305.944 92.452,305.884 91.904 C 305.824 91.356,305.713 90.861,305.638 90.804 C 305.562 90.747,305.496 90.473,305.491 90.196 C 305.474 89.319,304.943 86.800,304.774 86.800 C 304.685 86.800,304.664 86.665,304.728 86.500 C 304.791 86.335,304.775 86.043,304.691 85.850 C 304.608 85.658,304.509 85.320,304.472 85.100 C 304.309 84.144,303.340 80.800,303.226 80.800 C 303.157 80.800,303.086 80.555,303.068 80.256 C 303.051 79.957,302.938 79.679,302.817 79.639 C 302.696 79.599,302.645 79.489,302.702 79.396 C 302.799 79.240,301.841 76.631,301.603 76.400 C 301.546 76.345,301.469 76.123,301.431 75.906 C 301.337 75.366,300.398 73.533,300.124 73.353 C 300.001 73.272,299.968 73.205,300.051 73.203 C 300.133 73.201,299.826 72.484,299.368 71.608 C 298.910 70.733,298.445 70.072,298.336 70.139 C 298.227 70.207,298.196 70.168,298.267 70.053 C 298.421 69.804,295.603 65.765,294.961 65.315 C 294.713 65.142,294.587 65.000,294.680 65.000 C 294.773 65.000,294.738 64.866,294.602 64.702 C 294.466 64.538,294.261 64.462,294.146 64.533 C 294.032 64.604,293.995 64.569,294.065 64.457 C 294.188 64.257,291.457 61.506,290.336 60.700 C 290.030 60.480,289.456 60.006,289.060 59.646 C 288.665 59.286,288.306 59.027,288.264 59.070 C 288.221 59.112,287.907 58.887,287.566 58.568 C 287.224 58.249,286.907 58.026,286.860 58.073 C 286.814 58.120,286.539 57.939,286.251 57.672 C 285.962 57.404,285.603 57.233,285.453 57.291 C 285.302 57.348,285.234 57.306,285.301 57.198 C 285.369 57.089,285.328 57.000,285.212 57.000 C 284.772 57.000,284.696 56.964,284.538 56.682 C 284.448 56.522,284.297 56.440,284.202 56.499 C 284.106 56.558,283.974 56.519,283.908 56.413 C 283.730 56.125,279.313 54.046,278.664 53.945 C 278.464 53.914,278.210 53.836,278.100 53.771 C 277.590 53.471,275.787 52.984,275.604 53.097 C 275.492 53.167,275.400 53.132,275.400 53.021 C 275.400 52.846,274.675 52.650,273.600 52.533 C 273.435 52.515,273.252 52.436,273.193 52.358 C 273.134 52.280,272.707 52.190,272.243 52.158 C 271.780 52.126,271.400 52.022,271.400 51.927 C 271.400 51.831,271.175 51.796,270.900 51.849 C 270.625 51.902,270.400 51.884,270.400 51.811 C 270.400 51.619,266.041 50.951,265.792 51.105 C 265.677 51.176,265.474 51.148,265.341 51.042 C 265.084 50.836,263.076 50.577,261.100 50.495 C 260.440 50.467,259.745 50.381,259.557 50.303 C 259.368 50.226,258.715 50.193,258.106 50.231 C 257.498 50.269,257.000 50.252,257.000 50.193 C 257.000 49.988,256.161 49.976,233.150 49.873 L 210.000 49.769 210.000 124.788 M252.500 70.900 C 254.824 71.033,254.952 71.044,257.000 71.299 C 257.715 71.388,258.615 71.480,259.000 71.503 C 259.385 71.527,259.835 71.598,260.000 71.662 C 260.165 71.725,261.065 71.928,262.000 72.112 C 264.055 72.516,266.680 73.387,267.908 74.073 C 268.404 74.350,268.756 74.470,268.690 74.339 C 268.624 74.207,268.699 74.258,268.857 74.450 C 269.015 74.642,269.208 74.800,269.286 74.800 C 269.365 74.800,269.564 74.936,269.730 75.102 C 269.896 75.268,270.115 75.353,270.216 75.290 C 270.317 75.228,270.400 75.256,270.400 75.354 C 270.400 75.566,272.211 76.898,272.500 76.899 C 272.610 76.900,272.700 76.993,272.700 77.107 C 272.700 77.220,273.240 77.797,273.900 78.389 C 274.560 78.980,275.181 79.630,275.281 79.832 C 275.380 80.034,275.537 80.200,275.631 80.200 C 275.724 80.200,275.800 80.300,275.800 80.421 C 275.800 80.603,276.806 82.030,277.195 82.400 C 277.325 82.524,277.836 83.474,278.755 85.300 C 279.142 86.070,279.513 86.745,279.580 86.800 C 279.646 86.855,279.709 87.013,279.720 87.150 C 279.783 87.933,279.817 88.013,280.031 87.881 C 280.168 87.796,280.208 87.826,280.129 87.952 C 280.057 88.070,280.096 88.421,280.216 88.733 C 280.625 89.790,281.553 93.165,281.719 94.200 C 281.821 94.832,282.118 96.690,282.407 98.500 C 282.722 100.473,282.817 101.482,283.065 105.500 C 283.133 106.600,283.248 108.085,283.320 108.800 C 283.535 110.932,283.578 113.590,283.563 124.100 C 283.549 133.967,283.509 136.059,283.275 139.400 C 283.210 140.335,283.140 141.731,283.120 142.501 C 283.100 143.272,283.026 143.996,282.956 144.110 C 282.885 144.224,282.785 145.051,282.732 145.948 C 282.680 146.844,282.593 147.651,282.540 147.739 C 282.446 147.894,282.189 149.865,282.102 151.100 C 282.078 151.430,281.991 151.858,281.908 152.050 C 281.825 152.243,281.808 152.532,281.870 152.694 C 281.932 152.855,281.907 153.034,281.814 153.091 C 281.677 153.176,281.470 154.047,281.290 155.300 C 281.274 155.410,281.207 155.635,281.142 155.800 C 280.870 156.480,280.622 157.674,280.719 157.831 C 280.777 157.924,280.745 158.000,280.650 158.000 C 280.462 158.000,279.678 160.381,279.767 160.682 C 279.797 160.782,279.741 160.917,279.643 160.982 C 279.407 161.138,277.589 165.000,277.751 165.000 C 277.820 165.000,277.702 165.132,277.488 165.294 C 277.275 165.455,277.171 165.590,277.258 165.594 C 277.345 165.597,277.324 165.712,277.211 165.850 C 276.263 167.007,276.028 167.362,276.139 167.472 C 276.209 167.543,276.147 167.600,276.000 167.600 C 275.853 167.600,275.778 167.644,275.832 167.699 C 276.302 168.169,269.951 173.690,267.759 174.718 C 267.351 174.909,267.073 175.156,267.141 175.267 C 267.216 175.387,267.131 175.416,266.933 175.340 C 266.750 175.270,266.600 175.300,266.600 175.406 C 266.600 175.513,266.464 175.600,266.297 175.600 C 266.131 175.600,265.838 175.684,265.647 175.787 C 265.062 176.103,262.378 176.961,260.900 177.305 C 259.249 177.690,259.171 177.704,257.100 178.004 C 256.220 178.131,255.365 178.282,255.200 178.338 C 255.035 178.394,254.540 178.467,254.100 178.499 C 253.660 178.531,252.760 178.606,252.100 178.664 C 249.870 178.861,246.924 178.976,240.450 179.116 L 234.000 179.256 234.000 124.932 L 234.000 70.608 238.450 70.554 C 242.698 70.502,247.733 70.626,252.500 70.900 " stroke="none" fill="#949494" fill-rule="evenodd"></path><path id="path1" d="M308.510 25.254 C 308.564 25.394,308.808 25.631,309.054 25.781 C 309.479 26.040,309.478 26.028,309.015 25.526 C 308.474 24.939,308.367 24.881,308.510 25.254 M308.800 34.500 C 308.937 34.665,309.139 34.800,309.249 34.800 C 309.361 34.800,309.339 34.667,309.200 34.500 C 309.063 34.335,308.861 34.200,308.751 34.200 C 308.639 34.200,308.661 34.333,308.800 34.500 M148.952 47.541 C 149.201 47.589,149.561 47.587,149.752 47.537 C 149.944 47.487,149.740 47.448,149.300 47.450 C 148.860 47.453,148.704 47.494,148.952 47.541 M274.790 79.489 C 275.360 80.096,275.487 80.137,275.213 79.624 C 275.102 79.416,274.853 79.186,274.660 79.112 C 274.399 79.012,274.432 79.108,274.790 79.489 M235.640 179.149 C 236.597 179.185,238.217 179.186,239.240 179.149 C 240.263 179.113,239.480 179.083,237.500 179.083 C 235.520 179.082,234.683 179.112,235.640 179.149 M147.450 201.938 C 147.643 201.988,147.958 201.988,148.150 201.938 C 148.343 201.888,148.185 201.846,147.800 201.846 C 147.415 201.846,147.258 201.888,147.450 201.938 " stroke="none" fill="#8c948c" fill-rule="evenodd"></path><path id="path2" d="M171.296 159.200 C 171.296 168.935,171.320 172.918,171.350 168.050 C 171.380 163.183,171.380 155.218,171.350 150.350 C 171.320 145.483,171.296 149.465,171.296 159.200 " stroke="none" fill="#949498" fill-rule="evenodd"></path><path id="path3" d="M171.296 159.200 C 171.296 168.935,171.320 172.918,171.350 168.050 C 171.380 163.183,171.380 155.218,171.350 150.350 C 171.320 145.483,171.296 149.465,171.296 159.200 " stroke="none" fill="#949498" fill-rule="evenodd"></path><path id="path4" d="M171.296 159.200 C 171.296 168.935,171.320 172.918,171.350 168.050 C 171.380 163.183,171.380 155.218,171.350 150.350 C 171.320 145.483,171.296 149.465,171.296 159.200 " stroke="none" fill="#949498" fill-rule="evenodd"></path></g></svg>